<svg width="31" height="20" viewBox="0 0 31 20" fill="none" xmlns="http://www.w3.org/2000/svg">
    <path fill-rule="evenodd" clip-rule="evenodd" d="m15.95 6.52 8.005-5.19c.693-.45 1.816-.45 2.509 0 .693.449.693 1.177 0 1.627l-8.782 5.695c-.482.312-1.172.407-1.78.285-.581.094-1.22-.007-1.674-.3L5.505 2.978c-.688-.446-.688-1.17 0-1.616.688-.446 1.804-.446 2.492 0l7.953 5.158zm-.018 10.071 10.915-7.138c.945-.618 2.477-.618 3.422 0 .944.618.944 1.62 0 2.238l-11.975 7.83c-.657.43-1.599.56-2.429.392-.791.13-1.663-.009-2.282-.413L1.69 11.722c-.938-.614-.938-1.609 0-2.223.938-.613 2.46-.613 3.398 0l10.845 7.092z" fill="#fff"/>
</svg>
